<svg width="35" height="37" viewBox="0 0 35 37" fill="none" xmlns="http://www.w3.org/2000/svg">
<g clip-path="url(#clip0_74_278)">
<mask id="mask0_74_278" style="mask-type:alpha" maskUnits="userSpaceOnUse" x="2" y="0" width="31" height="37">
<mask id="mask1_74_278" style="mask-type:luminance" maskUnits="userSpaceOnUse" x="0" y="0" width="35" height="37">
<path d="M34.8454 0H0V36.0976H34.8454V0Z" fill="white"/>
</mask>
<g mask="url(#mask1_74_278)">
<path d="M20.5398 0.00241574C20.6623 -0.0124504 20.7048 0.0412966 20.6673 0.163657C20.2114 1.63884 19.7704 3.11001 19.3443 4.5772C19.3112 4.68925 19.3432 4.77504 19.4403 4.83449C21.1447 5.87627 22.7956 6.91059 24.3929 7.93752C24.4911 8.00041 24.5347 8.09075 24.5237 8.20853C24.4685 8.82719 24.4221 9.43443 24.3846 10.0302C24.3736 10.204 24.4337 10.3458 24.5651 10.4556C27.2751 12.7027 29.9935 14.9326 32.7199 17.1454C32.7565 17.174 32.7642 17.2094 32.7433 17.2517C32.1151 18.4833 31.5108 19.7092 30.9301 20.9294C30.8176 21.165 30.6387 21.3182 30.3935 21.3891C29.4519 21.6338 28.4718 21.7665 27.4528 21.787C26.5729 21.8042 25.8175 21.5864 25.1861 21.1335C24.7158 20.7767 24.452 20.3542 24.3946 19.8659C24.3846 19.8099 24.3521 19.7824 24.2969 19.7836C22.5616 19.8041 20.8229 19.8247 19.081 19.8453C19.0258 19.8464 18.9966 19.8756 18.9933 19.9328C18.9546 20.5251 18.948 21.1255 18.9734 21.7339C18.9756 21.7911 19.0026 21.8294 19.0545 21.8488C21.4433 22.7408 23.4392 24.1817 25.042 26.1715C27.0852 28.7102 28.2201 31.6227 28.4464 34.9092C28.4596 35.0796 28.4016 35.1124 28.2724 35.0072C25.9422 33.1213 23.6213 31.2762 21.3098 29.4716C21.2656 29.4373 21.2336 29.4471 21.2137 29.501C21.0161 30.0396 20.8456 30.6314 20.7021 31.2762C20.6745 31.401 20.606 31.434 20.4968 31.3757C18.31 30.2082 16.1425 29.0338 13.9943 27.8524C13.9204 27.8124 13.8823 27.8353 13.8801 27.9209C13.8448 28.9399 13.8012 29.9651 13.7493 30.9967C13.7415 31.1408 13.6731 31.187 13.5439 31.1357C11.6552 30.3867 9.76482 29.6433 7.87276 28.9056C7.69834 28.8381 7.60508 28.7084 7.59293 28.5163C7.51015 27.3475 7.34456 26.1444 7.09618 24.9072C6.88422 23.8495 6.69823 22.7842 6.53816 21.7116C6.25116 19.9311 6.29917 18.1586 6.68222 16.3941C7.15579 14.2774 7.9147 12.3047 8.95899 10.4762C10.001 8.62249 11.4328 6.90374 13.2542 5.31993C13.465 5.13697 13.6687 4.91912 13.8652 4.66638C14.9382 3.1466 16.2005 1.93845 17.652 1.0419C18.5782 0.470127 19.5408 0.123632 20.5398 0.00241574Z" fill="url(#paint0_linear_74_278)"/>
<path d="M2.39977 28.8763C2.55542 28.9062 2.75466 28.9696 2.99751 29.0668C6.99467 30.6644 11.1138 32.2723 15.3549 33.8902C15.4488 33.9268 15.499 33.8938 15.5056 33.7907C15.5652 32.8955 15.6038 31.9709 15.6215 31.0171C15.6226 30.9599 15.648 30.9444 15.6977 30.9707C17.6339 32.008 19.6203 33.0876 21.657 34.2094C21.7475 34.2597 21.8066 34.2334 21.8342 34.1305C21.96 33.6662 22.0781 33.1956 22.1885 32.7186C22.2051 32.6477 22.2409 32.634 22.2961 32.6776C23.3967 33.5558 24.4393 34.3855 25.424 35.1665C25.8479 35.5028 26.1993 35.8098 26.4789 36.0875C26.4953 36.1048 26.4915 36.1133 26.4672 36.1133C20.1861 35.9315 13.9326 35.7588 7.70669 35.5953C7.62388 35.593 7.61561 35.5662 7.68185 35.5146C7.84853 35.3867 8.01907 35.2243 8.1935 35.0276C8.26083 34.9497 8.25806 34.8749 8.18521 34.8027C6.25341 32.9045 4.31444 30.9537 2.36831 28.95C2.31642 28.8974 2.32691 28.8729 2.39977 28.8763Z" fill="url(#paint1_linear_74_278)"/>
</g>
</mask>
<g mask="url(#mask0_74_278)">
<mask id="mask2_74_278" style="mask-type:luminance" maskUnits="userSpaceOnUse" x="0" y="0" width="35" height="37">
<path d="M34.8454 0H0V36.0976H34.8454V0Z" fill="white"/>
</mask>
<g mask="url(#mask2_74_278)">
<path d="M20.5398 0.00241574C20.6623 -0.0124504 20.7048 0.0412966 20.6673 0.163657C20.2114 1.63884 19.7704 3.11001 19.3443 4.5772C19.3112 4.68925 19.3432 4.77504 19.4403 4.83449C21.1447 5.87627 22.7956 6.91059 24.3929 7.93752C24.4911 8.00041 24.5347 8.09075 24.5237 8.20853C24.4685 8.82719 24.4221 9.43443 24.3846 10.0302C24.3736 10.204 24.4337 10.3458 24.5651 10.4556C27.2751 12.7027 29.9935 14.9326 32.7199 17.1454C32.7565 17.174 32.7642 17.2094 32.7433 17.2517C32.1151 18.4833 31.5108 19.7092 30.9301 20.9294C30.8176 21.165 30.6387 21.3182 30.3935 21.3891C29.4519 21.6338 28.4718 21.7665 27.4528 21.787C26.5729 21.8042 25.8175 21.5864 25.1861 21.1335C24.7158 20.7767 24.452 20.3542 24.3946 19.8659C24.3846 19.8099 24.3521 19.7824 24.2969 19.7836C22.5616 19.8041 20.8229 19.8247 19.081 19.8453C19.0258 19.8464 18.9966 19.8756 18.9933 19.9328C18.9546 20.5251 18.948 21.1255 18.9734 21.7339C18.9756 21.7911 19.0026 21.8294 19.0545 21.8488C21.4433 22.7408 23.4392 24.1817 25.042 26.1715C27.0852 28.7102 28.2201 31.6227 28.4464 34.9092C28.4596 35.0796 28.4016 35.1124 28.2724 35.0072C25.9422 33.1213 23.6213 31.2762 21.3098 29.4716C21.2656 29.4373 21.2336 29.4471 21.2137 29.501C21.0161 30.0396 20.8456 30.6314 20.7021 31.2762C20.6745 31.401 20.606 31.434 20.4968 31.3757C18.31 30.2082 16.1425 29.0338 13.9943 27.8524C13.9204 27.8124 13.8823 27.8353 13.8801 27.9209C13.8448 28.9399 13.8012 29.9651 13.7493 30.9967C13.7415 31.1408 13.6731 31.187 13.5439 31.1357C11.6552 30.3867 9.76482 29.6433 7.87276 28.9056C7.69834 28.8381 7.60508 28.7084 7.59293 28.5163C7.51015 27.3475 7.34456 26.1444 7.09618 24.9072C6.88422 23.8495 6.69823 22.7842 6.53816 21.7116C6.25116 19.9311 6.29917 18.1586 6.68222 16.3941C7.15579 14.2774 7.9147 12.3047 8.95899 10.4762C10.001 8.62249 11.4328 6.90374 13.2542 5.31993C13.465 5.13697 13.6687 4.91912 13.8652 4.66638C14.9382 3.1466 16.2005 1.93845 17.652 1.0419C18.5782 0.470127 19.5408 0.123632 20.5398 0.00241574Z" fill="white"/>
<path d="M2.39977 28.8763C2.55542 28.9062 2.75466 28.9696 2.99751 29.0668C6.99467 30.6644 11.1138 32.2723 15.3549 33.8902C15.4488 33.9268 15.499 33.8938 15.5056 33.7907C15.5652 32.8955 15.6038 31.9709 15.6215 31.0171C15.6226 30.9599 15.648 30.9444 15.6977 30.9707C17.6339 32.008 19.6203 33.0876 21.657 34.2094C21.7475 34.2597 21.8066 34.2334 21.8342 34.1305C21.96 33.6662 22.0781 33.1956 22.1885 32.7186C22.2051 32.6477 22.2409 32.634 22.2961 32.6776C23.3967 33.5558 24.4393 34.3855 25.424 35.1665C25.8479 35.5028 26.1993 35.8098 26.4789 36.0875C26.4953 36.1048 26.4915 36.1133 26.4672 36.1133C20.1861 35.9315 13.9326 35.7588 7.70669 35.5953C7.62388 35.593 7.61561 35.5662 7.68185 35.5146C7.84853 35.3867 8.01907 35.2243 8.1935 35.0276C8.26083 34.9497 8.25806 34.8749 8.18521 34.8027C6.25341 32.9045 4.31444 30.9537 2.36831 28.95C2.31642 28.8974 2.32691 28.8729 2.39977 28.8763Z" fill="white"/>
</g>
</g>
</g>
<defs>
<linearGradient id="paint0_linear_74_278" x1="0.120208" y1="20.943" x2="39.355" y2="20.943" gradientUnits="userSpaceOnUse">
<stop stop-color="#E2AC6B"/>
<stop offset="1" stop-color="#E0D2B4"/>
</linearGradient>
<linearGradient id="paint1_linear_74_278" x1="-3.36682" y1="33.1984" x2="32.527" y2="33.1984" gradientUnits="userSpaceOnUse">
<stop stop-color="#E2AC6B"/>
<stop offset="1" stop-color="#E0D2B4"/>
</linearGradient>
<clipPath id="clip0_74_278">
<rect width="34.8454" height="36.0976" fill="white"/>
</clipPath>
</defs>
</svg>
