<svg width="35" height="34" viewBox="0 0 35 34" fill="none" xmlns="http://www.w3.org/2000/svg">
<mask id="mask0_76_312" style="mask-type:alpha" maskUnits="userSpaceOnUse" x="0" y="-1" width="35" height="35">
<path d="M7.6172 15.6704C8.90807 15.6397 10.1054 16.0203 11.2092 16.8122C11.4379 16.9756 11.6539 17.1675 11.8572 17.388C13.1237 18.5703 13.8194 20.0817 13.9444 21.9221C14.0847 23.9567 13.4845 25.6945 12.1438 27.1357C11.0258 28.3355 9.70748 28.9834 8.18894 29.0788C6.17641 29.2181 4.48967 28.4881 3.12868 26.8889C1.93743 25.4883 1.41346 23.8191 1.55678 21.881C1.64724 20.5736 2.06956 19.3842 2.82374 18.3126C3.23133 17.7225 3.72632 17.252 4.30873 16.901C4.35449 16.8758 4.39717 16.8462 4.4368 16.8122C5.30078 16.0664 6.3609 15.6858 7.6172 15.6704ZM11.842 22.3269C11.842 21.774 11.741 21.2265 11.545 20.7157C11.3489 20.205 11.0615 19.7408 10.6992 19.3499C10.3369 18.959 9.90683 18.6489 9.43348 18.4373C8.96011 18.2257 8.45278 18.1168 7.94042 18.1168C6.90567 18.1168 5.9133 18.5604 5.18162 19.3499C4.44994 20.1395 4.03888 21.2103 4.03888 22.3269C4.03888 23.4434 4.44994 24.5143 5.18162 25.3037C5.9133 26.0933 6.90567 26.5369 7.94042 26.5369C8.45278 26.5369 8.96011 26.428 9.43348 26.2165C9.90683 26.0049 10.3369 25.6947 10.6992 25.3037C11.0615 24.9129 11.3489 24.4488 11.545 23.938C11.741 23.4272 11.842 22.8797 11.842 22.3269Z" fill="url(#paint0_linear_76_312)"/>
<path d="M26.3987 1.77858C27.5391 2.27982 28.6145 2.9121 29.6247 3.67548C29.8177 3.81807 29.9144 4.01604 29.9144 4.26939C29.9144 4.81013 29.9144 5.48683 29.9144 6.29957C29.9144 6.39937 29.8784 6.48108 29.8063 6.54471C29.357 6.94501 28.8635 7.33001 28.3258 7.69963C28.2761 7.73361 28.2751 7.76872 28.3228 7.80492C30.5183 9.44682 32.7036 11.1057 34.8786 12.7816C34.971 12.8529 34.989 12.9418 34.9321 13.0481C34.4715 13.9004 34.0345 14.7229 33.6209 15.5159C33.5599 15.6333 33.4583 15.6404 33.3159 15.5373C32.4551 14.9571 31.5909 14.3402 30.7241 13.6865C27.6707 11.3821 24.655 9.06731 21.6768 6.74211C21.6351 6.71031 21.5965 6.67466 21.561 6.63518C20.8596 5.86412 19.9977 5.40733 18.9752 5.26474C17.8358 5.09803 16.7812 5.37221 15.8116 6.08735C12.5956 8.50687 9.34 10.9302 6.04477 13.3574C5.10559 14.0484 4.14 14.7339 3.14796 15.4139C2.73123 15.7188 2.35566 16.0512 2.02126 16.4109C1.96129 16.4647 1.91199 16.4548 1.87337 16.3813C1.25436 15.2132 0.639429 14.0874 0.028559 13.0037C-0.0202293 12.9193 -0.00650757 12.8485 0.0697242 12.7915C2.41766 11.0355 4.6553 9.33438 6.78269 7.68809C6.82435 7.65629 6.82385 7.62503 6.78117 7.59433C6.32376 7.27188 5.83031 6.94447 5.30075 6.61216C5.16861 6.52881 5.10202 6.4043 5.10102 6.2387C5.09593 5.40294 5.09848 4.65657 5.10864 3.9996C5.10967 3.94475 5.13049 3.90088 5.17115 3.86798C6.23432 3.03111 7.47844 2.31436 8.90344 1.7177C11.2016 0.753623 13.6313 0.194806 16.1927 0.0412564C19.8295 -0.190167 23.2315 0.38894 26.3987 1.77858Z" fill="url(#paint1_linear_76_312)"/>
<path d="M18.3876 13.1574C19.9479 13.1574 21.2128 11.7925 21.2128 10.1089C21.2128 8.42519 19.9479 7.0603 18.3876 7.0603C16.8273 7.0603 15.5625 8.42519 15.5625 10.1089C15.5625 11.7925 16.8273 13.1574 18.3876 13.1574Z" fill="url(#paint2_linear_76_312)"/>
<path d="M13.7923 9.82967C13.8462 9.78909 13.8716 9.80391 13.8685 9.87408C13.8116 11.324 14.2659 12.5739 15.2315 13.6235C15.9319 14.3858 16.7989 14.8349 17.8326 14.9709C19.1996 15.1628 20.3909 14.762 21.4063 13.7683C22.3963 12.7976 22.9076 11.5675 22.9401 10.0781C22.9411 10.0364 22.9574 10.0276 22.9889 10.0518C24.7158 11.3416 26.4244 12.6506 28.1147 13.9788C28.2011 14.0458 28.1924 14.0913 28.0887 14.1154C27.4961 14.258 26.9332 14.4987 26.3995 14.8376C25.5751 15.4069 24.9272 16.0649 24.4556 16.8119C24.3133 17.0367 24.1135 17.1957 23.8564 17.289C23.8106 17.3131 23.768 17.3422 23.7283 17.3762C21.0297 19.6926 18.3098 22.0288 15.5685 24.3847C15.5065 24.4373 15.4831 24.422 15.4984 24.3386C15.6305 23.6838 15.6971 23.0153 15.6981 22.3331C15.6869 21.051 15.4297 19.8478 14.9266 18.7236C14.4509 17.6345 13.7267 16.6474 12.754 15.7622C11.5272 14.6468 10.0956 14.0129 8.45912 13.8604C8.41032 13.856 8.40625 13.839 8.44691 13.8094C10.185 12.5294 11.9668 11.2029 13.7923 9.82967Z" fill="url(#paint3_linear_76_312)"/>
<path d="M29.3719 24.9943C31.722 24.9943 33.6271 22.9385 33.6271 20.4025C33.6271 17.8666 31.722 15.8108 29.3719 15.8108C27.0218 15.8108 25.1165 17.8666 25.1165 20.4025C25.1165 22.9385 27.0218 24.9943 29.3719 24.9943Z" fill="url(#paint4_linear_76_312)"/>
<path d="M7.93216 24.6959C9.14638 24.6959 10.1307 23.6338 10.1307 22.3235C10.1307 21.0133 9.14638 19.9512 7.93216 19.9512C6.71794 19.9512 5.73364 21.0133 5.73364 22.3235C5.73364 23.6338 6.71794 24.6959 7.93216 24.6959Z" fill="url(#paint5_linear_76_312)"/>
<path d="M23.2858 20.1714C23.3611 19.9433 23.3976 19.9499 23.3956 20.1912C23.3651 21.7223 23.762 23.0774 24.5863 24.2564C25.3345 25.3257 26.3127 26.0798 27.5213 26.5185C27.6047 26.5492 27.6244 26.6058 27.5807 26.688C26.4646 28.8135 25.3252 30.9431 24.1625 33.0764C24.135 33.1257 24.0944 33.1502 24.0405 33.1502C19.7736 33.1502 15.5056 33.1502 11.2367 33.1502C11.137 33.1502 11.0608 33.1049 11.008 33.0139C10.578 32.2657 10.177 31.527 9.80501 30.7978C9.78468 30.7582 9.79435 30.7307 9.83398 30.7153C11.4257 30.0826 12.8553 29.1744 14.1228 27.991C14.1614 27.9549 14.2006 27.9199 14.2402 27.8856C17.1756 25.3421 20.1354 22.8026 23.1197 20.2669C23.2121 20.1879 23.2675 20.1561 23.2858 20.1714Z" fill="url(#paint6_linear_76_312)"/>
</mask>
<g mask="url(#mask0_76_312)">
<path d="M7.6172 15.6704C8.90807 15.6397 10.1054 16.0203 11.2092 16.8122C11.4379 16.9756 11.6539 17.1675 11.8572 17.388C13.1237 18.5703 13.8194 20.0817 13.9444 21.9221C14.0847 23.9567 13.4845 25.6945 12.1438 27.1357C11.0258 28.3355 9.70748 28.9834 8.18894 29.0788C6.17641 29.2181 4.48967 28.4881 3.12868 26.8889C1.93743 25.4883 1.41346 23.8191 1.55678 21.881C1.64724 20.5736 2.06956 19.3842 2.82374 18.3126C3.23133 17.7225 3.72632 17.252 4.30873 16.901C4.35449 16.8758 4.39717 16.8462 4.4368 16.8122C5.30078 16.0664 6.3609 15.6858 7.6172 15.6704ZM11.842 22.3269C11.842 21.774 11.741 21.2265 11.545 20.7157C11.3489 20.205 11.0615 19.7408 10.6992 19.3499C10.3369 18.959 9.90683 18.6489 9.43348 18.4373C8.96011 18.2257 8.45278 18.1168 7.94042 18.1168C6.90567 18.1168 5.9133 18.5604 5.18162 19.3499C4.44994 20.1395 4.03888 21.2103 4.03888 22.3269C4.03888 23.4434 4.44994 24.5143 5.18162 25.3037C5.9133 26.0933 6.90567 26.5369 7.94042 26.5369C8.45278 26.5369 8.96011 26.428 9.43348 26.2165C9.90683 26.0049 10.3369 25.6947 10.6992 25.3037C11.0615 24.9129 11.3489 24.4488 11.545 23.938C11.741 23.4272 11.842 22.8797 11.842 22.3269Z" fill="white"/>
<path d="M26.3987 1.77858C27.5391 2.27982 28.6145 2.9121 29.6247 3.67548C29.8177 3.81807 29.9144 4.01604 29.9144 4.26939C29.9144 4.81013 29.9144 5.48683 29.9144 6.29957C29.9144 6.39937 29.8784 6.48108 29.8063 6.54471C29.357 6.94501 28.8635 7.33001 28.3258 7.69963C28.2761 7.73361 28.2751 7.76872 28.3228 7.80492C30.5183 9.44682 32.7036 11.1057 34.8786 12.7816C34.971 12.8529 34.989 12.9418 34.9321 13.0481C34.4715 13.9004 34.0345 14.7229 33.6209 15.5159C33.5599 15.6333 33.4583 15.6404 33.3159 15.5373C32.4551 14.9571 31.5909 14.3402 30.7241 13.6865C27.6707 11.3821 24.655 9.06731 21.6768 6.74211C21.6351 6.71031 21.5965 6.67466 21.561 6.63518C20.8596 5.86412 19.9977 5.40733 18.9752 5.26474C17.8358 5.09803 16.7812 5.37221 15.8116 6.08735C12.5956 8.50687 9.34 10.9302 6.04477 13.3574C5.10559 14.0484 4.14 14.7339 3.14796 15.4139C2.73123 15.7188 2.35566 16.0512 2.02126 16.4109C1.96129 16.4647 1.91199 16.4548 1.87337 16.3813C1.25436 15.2132 0.639429 14.0874 0.028559 13.0037C-0.0202293 12.9193 -0.00650757 12.8485 0.0697242 12.7915C2.41766 11.0355 4.6553 9.33438 6.78269 7.68809C6.82435 7.65629 6.82385 7.62503 6.78117 7.59433C6.32376 7.27188 5.83031 6.94447 5.30075 6.61216C5.16861 6.52881 5.10202 6.4043 5.10102 6.2387C5.09593 5.40294 5.09848 4.65657 5.10864 3.9996C5.10967 3.94475 5.13049 3.90088 5.17115 3.86798C6.23432 3.03111 7.47844 2.31436 8.90344 1.7177C11.2016 0.753623 13.6313 0.194806 16.1927 0.0412564C19.8295 -0.190167 23.2315 0.38894 26.3987 1.77858Z" fill="white"/>
<path d="M18.3876 13.1574C19.9479 13.1574 21.2128 11.7925 21.2128 10.1089C21.2128 8.42519 19.9479 7.0603 18.3876 7.0603C16.8273 7.0603 15.5625 8.42519 15.5625 10.1089C15.5625 11.7925 16.8273 13.1574 18.3876 13.1574Z" fill="white"/>
<path d="M13.7923 9.82967C13.8462 9.78909 13.8716 9.80391 13.8685 9.87408C13.8116 11.324 14.2659 12.5739 15.2315 13.6235C15.9319 14.3858 16.7989 14.8349 17.8326 14.9709C19.1996 15.1628 20.3909 14.762 21.4063 13.7683C22.3963 12.7976 22.9076 11.5675 22.9401 10.0781C22.9411 10.0364 22.9574 10.0276 22.9889 10.0518C24.7158 11.3416 26.4244 12.6506 28.1147 13.9788C28.2011 14.0458 28.1924 14.0913 28.0887 14.1154C27.4961 14.258 26.9332 14.4987 26.3995 14.8376C25.5751 15.4069 24.9272 16.0649 24.4556 16.8119C24.3133 17.0367 24.1135 17.1957 23.8564 17.289C23.8106 17.3131 23.768 17.3422 23.7283 17.3762C21.0297 19.6926 18.3098 22.0288 15.5685 24.3847C15.5065 24.4373 15.4831 24.422 15.4984 24.3386C15.6305 23.6838 15.6971 23.0153 15.6981 22.3331C15.6869 21.051 15.4297 19.8478 14.9266 18.7236C14.4509 17.6345 13.7267 16.6474 12.754 15.7622C11.5272 14.6468 10.0956 14.0129 8.45912 13.8604C8.41032 13.856 8.40625 13.839 8.44691 13.8094C10.185 12.5294 11.9668 11.2029 13.7923 9.82967Z" fill="white"/>
<path d="M29.3719 24.9943C31.722 24.9943 33.6271 22.9385 33.6271 20.4025C33.6271 17.8666 31.722 15.8108 29.3719 15.8108C27.0218 15.8108 25.1165 17.8666 25.1165 20.4025C25.1165 22.9385 27.0218 24.9943 29.3719 24.9943Z" fill="white"/>
<path d="M7.93216 24.6959C9.14638 24.6959 10.1307 23.6338 10.1307 22.3235C10.1307 21.0133 9.14638 19.9512 7.93216 19.9512C6.71794 19.9512 5.73364 21.0133 5.73364 22.3235C5.73364 23.6338 6.71794 24.6959 7.93216 24.6959Z" fill="white"/>
<path d="M23.2858 20.1714C23.3611 19.9433 23.3976 19.9499 23.3956 20.1912C23.3651 21.7223 23.762 23.0774 24.5863 24.2564C25.3345 25.3257 26.3127 26.0798 27.5213 26.5185C27.6047 26.5492 27.6244 26.6058 27.5807 26.688C26.4646 28.8135 25.3252 30.9431 24.1625 33.0764C24.135 33.1257 24.0944 33.1502 24.0405 33.1502C19.7736 33.1502 15.5056 33.1502 11.2367 33.1502C11.137 33.1502 11.0608 33.1049 11.008 33.0139C10.578 32.2657 10.177 31.527 9.80501 30.7978C9.78468 30.7582 9.79435 30.7307 9.83398 30.7153C11.4257 30.0826 12.8553 29.1744 14.1228 27.991C14.1614 27.9549 14.2006 27.9199 14.2402 27.8856C17.1756 25.3421 20.1354 22.8026 23.1197 20.2669C23.2121 20.1879 23.2675 20.1561 23.2858 20.1714Z" fill="white"/>
</g>
<defs>
<linearGradient id="paint0_linear_76_312" x1="-1.40132" y1="23.6875" x2="17.072" y2="23.6875" gradientUnits="userSpaceOnUse">
<stop stop-color="#E2AC6B"/>
<stop offset="1" stop-color="#E0D2B4"/>
</linearGradient>
<linearGradient id="paint1_linear_76_312" x1="-8.25552" y1="9.81796" x2="43.7057" y2="9.81796" gradientUnits="userSpaceOnUse">
<stop stop-color="#E2AC6B"/>
<stop offset="1" stop-color="#E0D2B4"/>
</linearGradient>
<linearGradient id="paint2_linear_76_312" x1="14.2284" y1="10.7016" x2="22.6254" y2="10.7016" gradientUnits="userSpaceOnUse">
<stop stop-color="#E2AC6B"/>
<stop offset="1" stop-color="#E0D2B4"/>
</linearGradient>
<linearGradient id="paint3_linear_76_312" x1="3.75497" y1="18.5315" x2="33.1121" y2="18.5315" gradientUnits="userSpaceOnUse">
<stop stop-color="#E2AC6B"/>
<stop offset="1" stop-color="#E0D2B4"/>
</linearGradient>
<linearGradient id="paint4_linear_76_312" x1="23.1071" y1="21.2954" x2="35.7547" y2="21.2954" gradientUnits="userSpaceOnUse">
<stop stop-color="#E2AC6B"/>
<stop offset="1" stop-color="#E0D2B4"/>
</linearGradient>
<linearGradient id="paint5_linear_76_312" x1="4.69545" y1="22.7848" x2="11.2299" y2="22.7848" gradientUnits="userSpaceOnUse">
<stop stop-color="#E2AC6B"/>
<stop offset="1" stop-color="#E0D2B4"/>
</linearGradient>
<linearGradient id="paint6_linear_76_312" x1="5.58989" y1="27.8557" x2="32.0554" y2="27.8557" gradientUnits="userSpaceOnUse">
<stop stop-color="#E2AC6B"/>
<stop offset="1" stop-color="#E0D2B4"/>
</linearGradient>
</defs>
</svg>
