<svg width="35" height="35" viewBox="0 0 35 35" fill="none" xmlns="http://www.w3.org/2000/svg">
<mask id="mask0_76_346" style="mask-type:alpha" maskUnits="userSpaceOnUse" x="0" y="0" width="35" height="35">
<g clip-path="url(#clip0_76_346)">
<mask id="mask1_76_346" style="mask-type:luminance" maskUnits="userSpaceOnUse" x="0" y="0" width="35" height="35">
<path d="M35 0H0V35H35V0Z" fill="white"/>
</mask>
<g mask="url(#mask1_76_346)">
<path d="M8.91892 0.783727C9.3863 0.780435 9.7807 0.893437 10.1022 1.12273C10.3666 1.33228 10.5207 1.60327 10.5646 1.93569C10.6381 2.39099 10.6502 3.02895 10.6008 3.8496C10.5997 3.93845 10.643 3.9829 10.7308 3.9829C12.2262 3.99495 13.733 3.99825 15.2514 3.99277C15.2964 3.99277 15.3354 3.9774 15.3683 3.9467C15.9728 3.374 16.5795 3.07395 17.1884 3.04653C17.9838 3.0114 18.6547 3.3027 19.201 3.92035C19.2372 3.96205 19.2828 3.9829 19.3376 3.9829C20.9504 3.99935 22.562 3.99935 24.1726 3.9829C24.2274 3.9829 24.2527 3.95547 24.2483 3.9006C24.1802 3.12057 24.2132 2.42445 24.347 1.81226C24.4809 1.19788 24.8648 0.868752 25.499 0.824867C26.6047 0.719547 27.483 0.728322 28.1337 0.8512C28.1875 0.861072 28.2395 0.876982 28.29 0.898922C28.709 1.07775 28.9785 1.3833 29.098 1.81556C29.1122 1.86822 29.12 1.92198 29.121 1.97683C29.1715 3.96917 29.1847 5.99883 29.1605 8.06577C29.153 8.69663 28.9527 9.14425 28.56 9.40865C28.515 9.43937 28.466 9.46295 28.4135 9.4794C28.013 9.61215 27.5352 9.6758 26.98 9.6703C26.325 9.66372 25.766 9.63575 25.3032 9.58637C25.2482 9.5809 25.1957 9.56828 25.1452 9.54852C24.669 9.3653 24.3925 9.0049 24.3157 8.46733C24.2433 7.95278 24.2269 7.32742 24.2664 6.59127C24.2686 6.5046 24.2269 6.46125 24.1413 6.46125C22.6075 6.45578 21.1484 6.45853 19.7638 6.4695C19.6026 6.4706 19.4731 6.53532 19.3755 6.66367C18.9838 7.17602 18.6815 7.4728 18.4687 7.55398C18.4171 7.57263 18.3914 7.60938 18.3914 7.66425C18.3793 11.2255 18.376 14.8152 18.3815 18.4335C18.3815 18.609 18.4621 18.7308 18.6234 18.7988C19.1599 19.0017 19.5285 19.4318 19.7293 20.089C20.0683 21.2014 20.2855 22.3786 20.381 23.6206C20.3908 23.7226 20.3469 23.7588 20.2493 23.7292C19.1445 23.3628 18.0282 23.2157 16.9004 23.2882C15.9667 23.3474 15.1439 23.4708 14.4319 23.6584C14.3375 23.6793 14.2942 23.6414 14.3019 23.5449C14.3754 22.2327 14.6107 21.0226 15.0079 19.9145C15.1867 19.4154 15.4615 19.0692 15.8323 18.8762C15.8795 18.8487 15.9031 18.8076 15.9031 18.7527C15.9404 15.0675 15.9437 11.3544 15.913 7.61322C15.9119 7.44865 15.8367 7.33183 15.6875 7.2627C15.5899 7.20785 15.5131 7.13215 15.4571 7.0356C15.331 6.82057 15.2224 6.66423 15.1313 6.56658C15.0655 6.49748 14.9848 6.46235 14.8894 6.46125C13.4204 6.45578 12.0594 6.45907 10.8065 6.47112C10.6496 6.47222 10.5766 6.55067 10.5876 6.70648C10.6907 7.57867 10.6524 8.27532 10.4724 8.79645C10.276 9.36365 9.81307 9.65495 9.0835 9.6703C8.50862 9.6681 7.93262 9.6681 7.35555 9.6703C6.78835 9.6725 6.3528 9.50465 6.0489 9.16673C5.779 8.8398 5.666 8.4591 5.7099 8.02465C5.71317 6.09153 5.71317 4.1853 5.7099 2.30596C5.7099 2.25111 5.71262 2.19625 5.71812 2.1414C5.78942 1.48862 6.10705 1.06239 6.67095 0.86272C6.72252 0.844067 6.77572 0.832547 6.83057 0.82816C7.40217 0.804022 8.0983 0.789212 8.91892 0.783727Z" fill="url(#paint0_linear_76_346)"/>
<path d="M3.85955 22.712C4.73723 22.7218 5.61493 22.7218 6.4926 22.712C6.85685 22.7076 7.1964 22.8069 7.51128 23.0098C8.08395 23.4202 8.38895 23.9791 8.42625 24.6868C8.46905 25.4965 8.525 26.3023 8.5941 27.1043C8.5985 27.159 8.62813 27.1865 8.68298 27.1865C9.85798 27.1985 11.0615 27.2018 12.2935 27.1965C12.3835 27.1965 12.4455 27.1548 12.4795 27.0713C12.7527 26.458 13.2255 26.0335 13.8981 25.7975C14.9239 25.4038 16.021 25.1843 17.1894 25.1393C17.8312 25.1153 18.5065 25.1943 19.2152 25.3763C20.0271 25.5463 20.7522 25.853 21.3908 26.2963C21.4357 26.327 21.484 26.3505 21.5356 26.367C21.8702 26.4713 22.0803 26.7193 22.1659 27.1108C22.1791 27.1678 22.2152 27.1965 22.2745 27.1965C23.4923 27.1965 24.6909 27.1965 25.8702 27.1965C25.9965 27.1965 26.0632 27.1333 26.071 27.0073C26.138 26.27 26.1807 25.565 26.1995 24.8925C26.2213 24.1047 26.4853 23.5046 26.991 23.0921C27.3738 22.7959 27.8095 22.6692 28.2978 22.712C29.0943 22.7471 29.8895 22.7471 30.6838 22.712C31.0953 22.6933 31.4688 22.786 31.8045 22.9901C32.3433 23.328 32.6415 23.8113 32.6997 24.4399C32.8105 25.6435 32.8918 26.8228 32.9433 27.978C32.9455 28.033 32.9455 28.0878 32.9433 28.1428C32.8875 29.649 32.7948 31.1438 32.6653 32.627C32.6607 32.682 32.6515 32.7358 32.6373 32.7883C32.43 33.5543 31.9395 34.0128 31.166 34.164C31.1123 34.175 31.058 34.1805 31.003 34.1805C30.4053 34.1915 29.6817 34.2085 28.8325 34.2315C28.1632 34.2503 27.5767 34.1235 27.0732 33.8515C26.6112 33.563 26.3475 33.141 26.2817 32.586C26.1753 31.762 26.1187 30.8575 26.1122 29.8723C26.1077 29.7418 26.0403 29.6753 25.9097 29.673C24.7304 29.6578 23.5411 29.6583 22.342 29.6748C22.2871 29.6748 22.2581 29.7023 22.2548 29.757C22.2186 30.3265 21.953 30.7998 21.4582 31.1773C20.9481 31.5613 20.3447 31.808 19.648 31.9178C18.2064 32.1328 16.7561 32.1498 15.2969 31.9688C14.5575 31.8778 13.9025 31.6413 13.332 31.2595C12.7922 30.8855 12.4735 30.3683 12.3758 29.7078C12.3703 29.6715 12.349 29.6533 12.3117 29.6533C11.0906 29.6665 9.8662 29.6703 8.63855 29.665C8.60783 29.665 8.59193 29.6798 8.59083 29.7093C8.53815 30.6955 8.4685 31.6513 8.38183 32.576C8.37743 32.631 8.3681 32.6848 8.35385 32.7373C8.15418 33.5153 7.66705 33.9903 6.8925 34.1625C6.83873 34.1745 6.78443 34.1823 6.72958 34.1855C5.9627 34.2493 5.04715 34.2645 3.98298 34.2315C3.1766 34.2063 2.59458 33.8905 2.23692 33.2838C2.07784 33.0183 1.98787 32.7313 1.96703 32.423C1.91876 31.4345 1.8639 30.4465 1.80246 29.4593C1.752 28.6505 1.73828 27.9238 1.76132 27.2788C1.82934 26.2188 1.90888 25.1903 1.99994 24.1931C2.00543 24.1382 2.01859 24.0855 2.03944 24.0351C2.20839 23.6226 2.46896 23.288 2.82113 23.0312C3.11515 22.8162 3.4613 22.7098 3.85955 22.712Z" fill="url(#paint1_linear_76_346)"/>
</g>
</g>
</mask>
<g mask="url(#mask0_76_346)">
</g>
<g clip-path="url(#clip1_76_346)">
<mask id="mask2_76_346" style="mask-type:luminance" maskUnits="userSpaceOnUse" x="0" y="0" width="35" height="35">
<path d="M35 0H0V35H35V0Z" fill="white"/>
</mask>
<g mask="url(#mask2_76_346)">
<path d="M8.91892 0.783727C9.3863 0.780435 9.7807 0.893437 10.1022 1.12273C10.3666 1.33228 10.5207 1.60327 10.5646 1.93569C10.6381 2.39099 10.6502 3.02895 10.6008 3.8496C10.5997 3.93845 10.643 3.9829 10.7308 3.9829C12.2262 3.99495 13.733 3.99825 15.2514 3.99277C15.2964 3.99277 15.3354 3.9774 15.3683 3.9467C15.9728 3.374 16.5795 3.07395 17.1884 3.04653C17.9838 3.0114 18.6547 3.3027 19.201 3.92035C19.2372 3.96205 19.2828 3.9829 19.3376 3.9829C20.9504 3.99935 22.562 3.99935 24.1726 3.9829C24.2274 3.9829 24.2527 3.95547 24.2483 3.9006C24.1802 3.12057 24.2132 2.42445 24.347 1.81226C24.4809 1.19788 24.8648 0.868752 25.499 0.824867C26.6047 0.719547 27.483 0.728322 28.1337 0.8512C28.1875 0.861072 28.2395 0.876982 28.29 0.898922C28.709 1.07775 28.9785 1.3833 29.098 1.81556C29.1122 1.86822 29.12 1.92198 29.121 1.97683C29.1715 3.96917 29.1847 5.99883 29.1605 8.06577C29.153 8.69663 28.9527 9.14425 28.56 9.40865C28.515 9.43937 28.466 9.46295 28.4135 9.4794C28.013 9.61215 27.5352 9.6758 26.98 9.6703C26.325 9.66372 25.766 9.63575 25.3032 9.58637C25.2482 9.5809 25.1957 9.56828 25.1452 9.54852C24.669 9.3653 24.3925 9.0049 24.3157 8.46733C24.2433 7.95278 24.2269 7.32742 24.2664 6.59127C24.2686 6.5046 24.2269 6.46125 24.1413 6.46125C22.6075 6.45578 21.1484 6.45853 19.7638 6.4695C19.6026 6.4706 19.4731 6.53532 19.3755 6.66367C18.9838 7.17602 18.6815 7.4728 18.4687 7.55398C18.4171 7.57263 18.3914 7.60938 18.3914 7.66425C18.3793 11.2255 18.376 14.8152 18.3815 18.4335C18.3815 18.609 18.4621 18.7308 18.6234 18.7988C19.1599 19.0017 19.5285 19.4318 19.7293 20.089C20.0683 21.2014 20.2855 22.3786 20.381 23.6206C20.3908 23.7226 20.3469 23.7588 20.2493 23.7292C19.1445 23.3628 18.0282 23.2157 16.9004 23.2882C15.9667 23.3474 15.1439 23.4708 14.4319 23.6584C14.3375 23.6793 14.2942 23.6414 14.3019 23.5449C14.3754 22.2327 14.6107 21.0226 15.0079 19.9145C15.1867 19.4154 15.4615 19.0692 15.8323 18.8762C15.8795 18.8487 15.9031 18.8076 15.9031 18.7527C15.9404 15.0675 15.9437 11.3544 15.913 7.61322C15.9119 7.44865 15.8367 7.33183 15.6875 7.2627C15.5899 7.20785 15.5131 7.13215 15.4571 7.0356C15.331 6.82057 15.2224 6.66423 15.1313 6.56658C15.0655 6.49748 14.9848 6.46235 14.8894 6.46125C13.4204 6.45578 12.0594 6.45907 10.8065 6.47112C10.6496 6.47222 10.5766 6.55067 10.5876 6.70648C10.6907 7.57867 10.6524 8.27532 10.4724 8.79645C10.276 9.36365 9.81307 9.65495 9.0835 9.6703C8.50862 9.6681 7.93262 9.6681 7.35555 9.6703C6.78835 9.6725 6.3528 9.50465 6.0489 9.16673C5.779 8.8398 5.666 8.4591 5.7099 8.02465C5.71317 6.09153 5.71317 4.1853 5.7099 2.30596C5.7099 2.25111 5.71262 2.19625 5.71812 2.1414C5.78942 1.48862 6.10705 1.06239 6.67095 0.86272C6.72252 0.844067 6.77572 0.832547 6.83057 0.82816C7.40217 0.804022 8.0983 0.789212 8.91892 0.783727Z" fill="white"/>
<path d="M3.85955 22.712C4.73723 22.7218 5.61493 22.7218 6.4926 22.712C6.85685 22.7076 7.1964 22.8069 7.51128 23.0098C8.08395 23.4202 8.38895 23.9791 8.42625 24.6868C8.46905 25.4965 8.525 26.3023 8.5941 27.1043C8.5985 27.159 8.62813 27.1865 8.68298 27.1865C9.85798 27.1985 11.0615 27.2018 12.2935 27.1965C12.3835 27.1965 12.4455 27.1548 12.4795 27.0713C12.7527 26.458 13.2255 26.0335 13.8981 25.7975C14.9239 25.4038 16.021 25.1843 17.1894 25.1393C17.8312 25.1153 18.5065 25.1943 19.2152 25.3763C20.0271 25.5463 20.7522 25.853 21.3908 26.2963C21.4357 26.327 21.484 26.3505 21.5356 26.367C21.8702 26.4713 22.0803 26.7193 22.1659 27.1108C22.1791 27.1678 22.2152 27.1965 22.2745 27.1965C23.4923 27.1965 24.6909 27.1965 25.8702 27.1965C25.9965 27.1965 26.0632 27.1333 26.071 27.0073C26.138 26.27 26.1807 25.565 26.1995 24.8925C26.2213 24.1047 26.4853 23.5046 26.991 23.0921C27.3738 22.7959 27.8095 22.6692 28.2978 22.712C29.0943 22.7471 29.8895 22.7471 30.6838 22.712C31.0953 22.6933 31.4688 22.786 31.8045 22.9901C32.3433 23.328 32.6415 23.8113 32.6997 24.4399C32.8105 25.6435 32.8918 26.8228 32.9433 27.978C32.9455 28.033 32.9455 28.0878 32.9433 28.1428C32.8875 29.649 32.7948 31.1438 32.6653 32.627C32.6607 32.682 32.6515 32.7358 32.6373 32.7883C32.43 33.5543 31.9395 34.0128 31.166 34.164C31.1123 34.175 31.058 34.1805 31.003 34.1805C30.4053 34.1915 29.6817 34.2085 28.8325 34.2315C28.1632 34.2503 27.5767 34.1235 27.0732 33.8515C26.6112 33.563 26.3475 33.141 26.2817 32.586C26.1753 31.762 26.1187 30.8575 26.1122 29.8723C26.1077 29.7418 26.0403 29.6753 25.9097 29.673C24.7304 29.6578 23.5411 29.6583 22.342 29.6748C22.2871 29.6748 22.2581 29.7023 22.2548 29.757C22.2186 30.3265 21.953 30.7998 21.4582 31.1773C20.9481 31.5613 20.3447 31.808 19.648 31.9178C18.2064 32.1328 16.7561 32.1498 15.2969 31.9688C14.5575 31.8778 13.9025 31.6413 13.332 31.2595C12.7922 30.8855 12.4735 30.3683 12.3758 29.7078C12.3703 29.6715 12.349 29.6533 12.3117 29.6533C11.0906 29.6665 9.8662 29.6703 8.63855 29.665C8.60783 29.665 8.59193 29.6798 8.59083 29.7093C8.53815 30.6955 8.4685 31.6513 8.38183 32.576C8.37743 32.631 8.3681 32.6848 8.35385 32.7373C8.15418 33.5153 7.66705 33.9903 6.8925 34.1625C6.83873 34.1745 6.78443 34.1823 6.72958 34.1855C5.9627 34.2493 5.04715 34.2645 3.98298 34.2315C3.1766 34.2063 2.59458 33.8905 2.23692 33.2838C2.07784 33.0183 1.98787 32.7313 1.96703 32.423C1.91876 31.4345 1.8639 30.4465 1.80246 29.4593C1.752 28.6505 1.73828 27.9238 1.76132 27.2788C1.82934 26.2188 1.90888 25.1903 1.99994 24.1931C2.00543 24.1382 2.01859 24.0855 2.03944 24.0351C2.20839 23.6226 2.46896 23.288 2.82113 23.0312C3.11515 22.8162 3.4613 22.7098 3.85955 22.712Z" fill="white"/>
</g>
</g>
<defs>
<linearGradient id="paint0_linear_76_346" x1="0.158772" y1="14.4804" x2="35.0402" y2="14.4804" gradientUnits="userSpaceOnUse">
<stop stop-color="#E2AC6B"/>
<stop offset="1" stop-color="#E0D2B4"/>
</linearGradient>
<linearGradient id="paint1_linear_76_346" x1="-5.61488" y1="29.5985" x2="40.7435" y2="29.5985" gradientUnits="userSpaceOnUse">
<stop stop-color="#E2AC6B"/>
<stop offset="1" stop-color="#E0D2B4"/>
</linearGradient>
<clipPath id="clip0_76_346">
<rect width="35" height="35" fill="white"/>
</clipPath>
<clipPath id="clip1_76_346">
<rect width="35" height="35" fill="white"/>
</clipPath>
</defs>
</svg>
