<svg width="34" height="34" viewBox="0 0 34 34" fill="none" xmlns="http://www.w3.org/2000/svg">
<mask id="mask0_76_354" style="mask-type:alpha" maskUnits="userSpaceOnUse" x="0" y="0" width="34" height="34">
<g clip-path="url(#clip0_76_354)">
<path d="M17.9077 2.0672C20.9944 2.23162 23.8285 3.16773 26.4097 4.87552C27.3642 5.508 28.2402 6.23327 29.0382 7.05135C29.733 7.74838 30.3635 8.49232 30.9296 9.28316C32.3245 11.3097 33.2547 13.5446 33.7195 15.9877C33.9507 17.2042 34.0389 18.4778 33.9845 19.8083C33.83 22.6741 33.0201 25.3442 31.5544 27.8186C30.9755 28.7952 30.2819 29.7282 29.4739 30.6178C29.0542 31.0678 28.5241 31.3522 27.8836 31.4712C27.8341 31.4824 27.7843 31.4899 27.7338 31.494C26.6261 31.5968 25.7404 31.2483 25.0767 30.4483C25.0444 30.4102 25.0106 30.3732 24.9754 30.338C23.8043 29.2 22.4541 28.3286 20.9248 27.7234C19.7003 27.2392 18.3793 26.9966 16.962 26.9956C14.4735 27.0004 12.2447 27.7475 10.2757 29.2364C9.74506 29.6379 9.20943 30.1236 8.66874 30.6936C8.22086 31.1526 7.65648 31.4202 6.97559 31.4969C5.9255 31.607 5.04589 31.2509 4.33675 30.4289C3.16863 29.088 2.2295 27.644 1.51935 26.0968C0.404702 23.6758 -0.096638 21.1005 0.0153313 18.3709C0.0829165 16.7256 0.369901 15.159 0.876284 13.6712C1.65805 11.2845 2.91242 9.18483 4.63937 7.37212C6.8273 5.07625 9.42176 3.5097 12.4228 2.67245C14.2455 2.16404 16.0739 1.96229 17.9077 2.0672ZM17.652 6.82438C17.3201 6.55707 16.9484 6.50663 16.5369 6.67308C16.207 6.79716 16.0083 7.00193 15.9407 7.28739C15.7581 8.05705 15.7395 8.99317 15.8847 10.0957C15.8908 10.1461 15.9009 10.1956 15.915 10.244C16.0481 10.6878 16.3341 10.9506 16.7729 11.0323C17.2087 11.114 17.5713 10.9723 17.8608 10.6071C18.0061 10.4215 18.0863 10.2107 18.1014 9.97465C18.1458 9.40471 18.1569 8.71072 18.1347 7.89264C18.1216 7.42157 17.9607 7.06546 17.652 6.82438ZM11.3375 13.3853C11.5494 13.1727 11.6681 12.8846 11.6676 12.5845C11.6671 12.2843 11.5473 11.9966 11.3347 11.7847L9.7613 10.2168C9.54868 10.005 9.2606 9.8862 8.96043 9.88674C8.66026 9.88725 8.3726 10.007 8.1607 10.2196C7.94884 10.4322 7.83008 10.7203 7.83061 11.0205C7.83115 11.3207 7.95088 11.6083 8.1635 11.8202L9.7369 13.3881C9.94952 13.6 10.2376 13.7188 10.5378 13.7182C10.8379 13.7177 11.1256 13.598 11.3375 13.3853ZM25.799 10.2138C25.5896 10.0031 25.3052 9.88416 25.0082 9.88312C24.7112 9.8821 24.4261 9.99906 24.2154 10.2083L22.6414 11.7713C22.537 11.8749 22.4541 11.9981 22.3974 12.1337C22.3406 12.2694 22.3112 12.4149 22.3107 12.5619C22.3101 12.709 22.3386 12.8547 22.3944 12.9907C22.4502 13.1268 22.5323 13.2505 22.6359 13.3548C22.8451 13.5655 23.1295 13.6845 23.4265 13.6855C23.7234 13.6866 24.0086 13.5696 24.2193 13.3603L25.7934 11.7973C25.8976 11.6937 25.9806 11.5706 26.0372 11.4349C26.094 11.2993 26.1234 11.1538 26.1241 11.0067C26.1246 10.8597 26.096 10.714 26.0404 10.5779C25.9845 10.4419 25.9024 10.3182 25.799 10.2138ZM21.7752 14.0873C21.522 13.9077 21.2416 13.9107 20.9339 14.0963C19.2725 15.1 17.6238 16.137 15.9876 17.2073C15.7082 17.3616 15.4686 17.5507 15.2689 17.7747C14.8089 18.2911 14.642 18.8682 14.768 19.5057C14.8175 19.8113 14.934 20.0983 15.1176 20.3666C15.4928 20.9133 15.9942 21.219 16.6216 21.2836C17.012 21.3391 17.362 21.2856 17.6717 21.1232C18.1589 20.8276 18.5684 20.4176 18.9003 19.893C19.9282 18.268 20.9465 16.6384 21.9553 15.0042C22.1853 14.6138 22.1252 14.3082 21.7752 14.0873ZM9.00009 19.055C9.00114 18.756 8.88337 18.4689 8.67272 18.2568C8.46207 18.0446 8.17576 17.9249 7.87678 17.9238L5.65255 17.9161C5.35359 17.915 5.06644 18.0328 4.8543 18.2435C4.64217 18.4541 4.52241 18.7404 4.52134 19.0394C4.5203 19.3383 4.63806 19.6255 4.84874 19.8376C5.05939 20.0497 5.3457 20.1695 5.64466 20.1706L7.86891 20.1783C8.16789 20.1794 8.45502 20.0616 8.66716 19.8509C8.87929 19.6403 8.99905 19.354 9.00009 19.055ZM29.4406 19.0472C29.4406 18.7486 29.3221 18.4623 29.1108 18.2512C28.8998 18.0401 28.6134 17.9214 28.3147 17.9214H26.0846C25.7858 17.9214 25.4995 18.0401 25.2885 18.2512C25.0774 18.4623 24.9587 18.7486 24.9587 19.0472C24.9587 19.3458 25.0774 19.6321 25.2885 19.8432C25.4995 20.0543 25.7858 20.173 26.0846 20.173H28.3147C28.6134 20.173 28.8998 20.0543 29.1108 19.8432C29.3221 19.6321 29.4406 19.3458 29.4406 19.0472Z" fill="url(#paint0_linear_76_354)"/>
</g>
</mask>
<g mask="url(#mask0_76_354)">
</g>
<g clip-path="url(#clip1_76_354)">
<path d="M17.9077 2.0672C20.9944 2.23162 23.8285 3.16773 26.4097 4.87552C27.3642 5.508 28.2402 6.23327 29.0382 7.05135C29.733 7.74838 30.3635 8.49232 30.9296 9.28316C32.3245 11.3097 33.2547 13.5446 33.7195 15.9877C33.9507 17.2042 34.0389 18.4778 33.9845 19.8083C33.83 22.6741 33.0201 25.3442 31.5544 27.8186C30.9755 28.7952 30.2819 29.7282 29.4739 30.6178C29.0542 31.0678 28.5241 31.3522 27.8836 31.4712C27.8341 31.4824 27.7843 31.4899 27.7338 31.494C26.6261 31.5968 25.7404 31.2483 25.0767 30.4483C25.0444 30.4102 25.0106 30.3732 24.9754 30.338C23.8043 29.2 22.4541 28.3286 20.9248 27.7234C19.7003 27.2392 18.3793 26.9966 16.962 26.9956C14.4735 27.0004 12.2447 27.7475 10.2757 29.2364C9.74506 29.6379 9.20943 30.1236 8.66874 30.6936C8.22086 31.1526 7.65648 31.4202 6.97559 31.4969C5.9255 31.607 5.04589 31.2509 4.33675 30.4289C3.16863 29.088 2.2295 27.644 1.51935 26.0968C0.404702 23.6758 -0.096638 21.1005 0.0153313 18.3709C0.0829165 16.7256 0.369901 15.159 0.876284 13.6712C1.65805 11.2845 2.91242 9.18483 4.63937 7.37212C6.8273 5.07625 9.42176 3.5097 12.4228 2.67245C14.2455 2.16404 16.0739 1.96229 17.9077 2.0672ZM17.652 6.82438C17.3201 6.55707 16.9484 6.50663 16.5369 6.67308C16.207 6.79716 16.0083 7.00193 15.9407 7.28739C15.7581 8.05705 15.7395 8.99317 15.8847 10.0957C15.8908 10.1461 15.9009 10.1956 15.915 10.244C16.0481 10.6878 16.3341 10.9506 16.7729 11.0323C17.2087 11.114 17.5713 10.9723 17.8608 10.6071C18.0061 10.4215 18.0863 10.2107 18.1014 9.97465C18.1458 9.40471 18.1569 8.71072 18.1347 7.89264C18.1216 7.42157 17.9607 7.06546 17.652 6.82438ZM11.3375 13.3853C11.5494 13.1727 11.6681 12.8846 11.6676 12.5845C11.6671 12.2843 11.5473 11.9966 11.3347 11.7847L9.7613 10.2168C9.54868 10.005 9.2606 9.8862 8.96043 9.88674C8.66026 9.88725 8.3726 10.007 8.1607 10.2196C7.94884 10.4322 7.83008 10.7203 7.83061 11.0205C7.83115 11.3207 7.95088 11.6083 8.1635 11.8202L9.7369 13.3881C9.94952 13.6 10.2376 13.7188 10.5378 13.7182C10.8379 13.7177 11.1256 13.598 11.3375 13.3853ZM25.799 10.2138C25.5896 10.0031 25.3052 9.88416 25.0082 9.88312C24.7112 9.8821 24.4261 9.99906 24.2154 10.2083L22.6414 11.7713C22.537 11.8749 22.4541 11.9981 22.3974 12.1337C22.3406 12.2694 22.3112 12.4149 22.3107 12.5619C22.3101 12.709 22.3386 12.8547 22.3944 12.9907C22.4502 13.1268 22.5323 13.2505 22.6359 13.3548C22.8451 13.5655 23.1295 13.6845 23.4265 13.6855C23.7234 13.6866 24.0086 13.5696 24.2193 13.3603L25.7934 11.7973C25.8976 11.6937 25.9806 11.5706 26.0372 11.4349C26.094 11.2993 26.1234 11.1538 26.1241 11.0067C26.1246 10.8597 26.096 10.714 26.0404 10.5779C25.9845 10.4419 25.9024 10.3182 25.799 10.2138ZM21.7752 14.0873C21.522 13.9077 21.2416 13.9107 20.9339 14.0963C19.2725 15.1 17.6238 16.137 15.9876 17.2073C15.7082 17.3616 15.4686 17.5507 15.2689 17.7747C14.8089 18.2911 14.642 18.8682 14.768 19.5057C14.8175 19.8113 14.934 20.0983 15.1176 20.3666C15.4928 20.9133 15.9942 21.219 16.6216 21.2836C17.012 21.3391 17.362 21.2856 17.6717 21.1232C18.1589 20.8276 18.5684 20.4176 18.9003 19.893C19.9282 18.268 20.9465 16.6384 21.9553 15.0042C22.1853 14.6138 22.1252 14.3082 21.7752 14.0873ZM9.00009 19.055C9.00114 18.756 8.88337 18.4689 8.67272 18.2568C8.46207 18.0446 8.17576 17.9249 7.87678 17.9238L5.65255 17.9161C5.35359 17.915 5.06644 18.0328 4.8543 18.2435C4.64217 18.4541 4.52241 18.7404 4.52134 19.0394C4.5203 19.3383 4.63806 19.6255 4.84874 19.8376C5.05939 20.0497 5.3457 20.1695 5.64466 20.1706L7.86891 20.1783C8.16789 20.1794 8.45502 20.0616 8.66716 19.8509C8.87929 19.6403 8.99905 19.354 9.00009 19.055ZM29.4406 19.0472C29.4406 18.7486 29.3221 18.4623 29.1108 18.2512C28.8998 18.0401 28.6134 17.9214 28.3147 17.9214H26.0846C25.7858 17.9214 25.4995 18.0401 25.2885 18.2512C25.0774 18.4623 24.9587 18.7486 24.9587 19.0472C24.9587 19.3458 25.0774 19.6321 25.2885 19.8432C25.4995 20.0543 25.7858 20.173 26.0846 20.173H28.3147C28.6134 20.173 28.8998 20.0543 29.1108 19.8432C29.3221 19.6321 29.4406 19.3458 29.4406 19.0472Z" fill="white"/>
</g>
<defs>
<linearGradient id="paint0_linear_76_354" x1="-8.02779" y1="19.6441" x2="42.5" y2="19.6441" gradientUnits="userSpaceOnUse">
<stop stop-color="#E2AC6B"/>
<stop offset="1" stop-color="#E0D2B4"/>
</linearGradient>
<clipPath id="clip0_76_354">
<rect width="34" height="34" fill="white"/>
</clipPath>
<clipPath id="clip1_76_354">
<rect width="34" height="34" fill="white"/>
</clipPath>
</defs>
</svg>
